<?xml version="1.0" standalone="no"?>
<!DOCTYPE svg PUBLIC "-//W3C//DTD SVG 20010904//EN"
 "http://www.w3.org/TR/2001/REC-SVG-20010904/DTD/svg10.dtd">
<svg version="1.0" xmlns="http://www.w3.org/2000/svg"
 width="700.000000pt" height="700.000000pt" viewBox="0 0 700.000000 700.000000"
 preserveAspectRatio="xMidYMid meet">
<metadata>
Created by potrace 1.11, written by Peter Selinger 2001-2013
</metadata>
<g transform="translate(0.000000,700.000000) scale(0.100000,-0.100000)"
fill="#000000" stroke="none">
<path d="M3508 6147 c-35 -30 -54 -45 -113 -92 -27 -22 -55 -44 -61 -50 -45
-41 -74 -65 -78 -65 -2 0 -17 -11 -32 -24 -39 -33 -122 -102 -159 -132 -16
-13 -41 -33 -55 -45 -14 -11 -40 -33 -59 -47 -42 -33 -104 -85 -111 -93 -3 -3
-25 -21 -50 -40 -25 -19 -54 -42 -65 -51 -11 -9 -49 -41 -85 -70 -36 -29 -67
-55 -70 -58 -3 -3 -25 -21 -50 -40 -25 -19 -47 -37 -50 -40 -3 -3 -25 -21 -50
-40 -25 -19 -47 -37 -50 -41 -3 -3 -32 -28 -65 -54 -33 -27 -61 -52 -63 -57
-2 -4 -9 -8 -15 -8 -7 0 -18 -9 -25 -21 -7 -12 -15 -19 -18 -16 -3 2 -18 -8
-33 -22 -16 -15 -43 -38 -61 -52 -17 -13 -41 -32 -53 -42 -12 -10 -37 -31 -56
-45 -19 -15 -44 -36 -55 -47 -12 -11 -39 -33 -61 -50 -50 -37 -54 -40 -86 -68
-14 -13 -48 -41 -75 -62 -27 -22 -50 -43 -52 -47 -2 -5 -10 -8 -18 -8 -9 0
-12 -4 -9 -10 3 -5 1 -10 -5 -10 -11 0 -23 -8 -63 -45 -12 -11 -67 -56 -122
-100 -112 -90 -111 -90 -181 -148 -28 -23 -68 -55 -89 -72 -21 -16 -48 -39
-59 -50 -12 -11 -37 -31 -56 -45 -19 -13 -37 -27 -40 -31 -3 -3 -34 -30 -70
-58 -36 -28 -85 -68 -109 -89 -24 -20 -54 -43 -65 -51 -12 -8 -23 -18 -26 -21
-3 -4 -70 -60 -150 -125 -80 -65 -163 -133 -185 -151 -22 -18 -43 -33 -47 -33
-9 -1 -48 -38 -48 -46 0 -3 16 -5 36 -5 25 0 33 -4 28 -12 -6 -10 -4 -10 7 0
7 6 17 12 22 12 4 0 5 -6 1 -12 -6 -10 -4 -10 7 -2 8 6 34 11 59 11 25 0 51
-5 59 -11 11 -8 13 -8 7 2 -9 15 6 16 21 1 8 -8 13 -8 17 0 10 16 49 14 40 -1
-6 -10 -4 -10 7 0 7 6 17 12 22 12 4 0 5 -6 1 -12 -6 -10 -4 -10 7 -2 18 15
100 15 118 0 11 -8 13 -8 7 2 -9 15 6 16 21 1 8 -8 13 -8 17 0 10 16 49 14 40
-1 -6 -10 -4 -10 7 0 16 15 33 16 24 1 -4 -6 3 -5 14 3 18 11 23 11 31 -2 6
-9 10 -11 10 -3 0 8 13 12 35 11 19 -1 32 -4 30 -8 -2 -4 2 -7 10 -7 8 0 12 4
9 8 -3 5 11 8 30 7 19 -1 33 -4 31 -8 -2 -4 2 -7 10 -7 8 0 12 4 9 8 -3 5 11
8 30 7 19 -1 33 -4 31 -8 -2 -4 2 -7 10 -7 8 0 12 4 9 8 -3 5 11 8 30 7 19 -1
33 -4 31 -8 -2 -4 2 -7 10 -7 8 0 12 4 9 9 -8 13 31 9 45 -4 8 -7 11 -8 8 -2
-3 6 -1 11 6 11 10 0 12 -46 12 -191 -1 -105 -5 -198 -10 -205 -5 -8 -4 -12 1
-8 10 5 10 -174 0 -199 -3 -8 -2 -14 3 -14 5 0 7 -12 5 -27 -2 -16 -4 -181 -4
-367 0 -255 -3 -343 -13 -354 -9 -13 -9 -14 1 -8 9 5 12 -3 12 -29 0 -25 -4
-34 -12 -29 -8 5 -8 3 -2 -7 13 -20 13 -99 0 -99 -7 0 -7 -3 0 -8 10 -6 13
-191 4 -227 -1 -5 -1 -14 0 -20 7 -26 4 -61 -5 -67 -6 -5 -5 -8 2 -8 9 0 10
-7 3 -25 -5 -14 -6 -25 -2 -25 4 0 6 -17 5 -37 -4 -38 -4 -45 -3 -105 0 -18 0
-115 -1 -215 -1 -100 2 -186 5 -191 3 -6 2 -12 -2 -14 -5 -1 -7 -20 -4 -41 4
-34 7 -37 37 -37 18 0 36 -6 38 -12 4 -10 6 -9 6 1 1 11 4 11 18 0 11 -10 14
-10 9 -1 -4 7 -1 12 9 12 10 0 13 -5 9 -12 -5 -7 -3 -8 7 -2 23 14 51 15 67 2
11 -9 14 -9 9 -1 -10 15 52 15 72 -1 11 -8 13 -8 8 1 -9 14 52 15 70 1 7 -5
14 -5 18 2 3 5 15 10 26 10 13 0 18 -4 13 -12 -5 -8 -3 -8 7 -2 21 13 132 14
148 0 11 -8 13 -8 8 0 -4 7 2 12 18 12 14 0 22 -4 20 -8 -3 -5 3 -7 12 -5 10
2 18 4 18 5 0 1 12 4 28 6 15 1 25 -1 23 -5 -3 -4 1 -8 9 -8 8 0 12 3 10 7 -2
4 11 7 30 7 19 0 32 -4 29 -9 -3 -4 0 -8 5 -8 6 0 11 4 11 8 0 5 16 9 35 9 19
0 32 -4 29 -9 -3 -4 0 -8 5 -8 6 0 11 4 11 9 0 8 52 8 70 1 3 -1 10 -1 15 0
49 10 56 10 49 -2 -6 -10 -5 -10 8 0 12 9 18 10 23 2 5 -8 11 -8 21 1 11 9 14
9 14 -1 0 -10 3 -10 15 0 12 10 15 10 15 -1 0 -11 2 -11 10 1 9 13 10 13 10 0
0 -12 2 -12 9 -1 5 8 11 9 15 3 7 -11 24 -11 44 2 7 4 20 2 29 -6 14 -11 16
-11 8 2 -8 13 -7 13 8 1 13 -10 17 -10 17 -1 0 9 4 9 17 -1 11 -10 14 -10 9
-1 -4 6 -2 12 3 12 6 0 11 -6 11 -12 0 -10 2 -10 9 0 4 8 12 14 16 14 4 0 12
-6 16 -14 6 -8 9 -9 9 -1 0 6 8 10 18 8 9 -1 16 -8 14 -15 -1 -6 2 -9 8 -5 6
3 8 9 6 13 -2 4 11 8 30 8 19 1 34 -4 34 -10 0 -7 3 -7 8 -1 12 17 44 15 37
-2 -5 -13 -3 -14 10 -3 19 16 65 22 65 9 0 -5 5 -9 11 -9 5 0 8 4 5 8 -6 10
30 9 40 -1 4 -3 16 -2 27 4 15 9 18 8 12 -2 -6 -8 -4 -10 6 -3 20 12 39 14 39
3 0 -6 5 -7 11 -3 17 10 81 12 100 3 9 -5 19 -5 23 -2 10 10 56 10 56 0 0 -5
7 -4 15 3 10 8 15 9 15 1 0 -7 8 -8 25 -1 17 7 25 6 25 -1 0 -8 5 -7 15 1 12
10 15 10 15 0 0 -9 4 -9 17 1 12 10 17 11 20 2 3 -8 13 -9 34 -3 22 7 28 6 22
-3 -4 -7 0 -6 10 2 13 10 17 10 17 1 0 -10 3 -10 15 0 12 10 15 10 15 0 0 -10
3 -10 15 0 12 10 15 10 15 -1 0 -11 2 -11 10 1 7 11 10 11 10 2 0 -10 5 -10
20 -2 19 10 25 6 21 -14 -1 -5 5 -4 13 3 8 7 20 10 26 6 5 -3 10 -2 10 2 0 5
9 9 20 9 11 0 20 -3 20 -7 0 -9 21 -6 38 4 7 5 12 3 12 -3 0 -8 6 -7 21 1 17
9 20 8 13 -3 -6 -11 -5 -11 9 1 12 9 17 10 17 2 0 -8 5 -9 19 -2 10 6 21 8 24
4 11 -10 52 -9 60 2 6 7 10 6 13 -2 4 -8 13 -9 29 -3 12 5 26 6 29 2 10 -10
46 -9 46 1 0 5 8 3 17 -4 11 -10 14 -10 9 -2 -5 10 -1 11 16 5 24 -8 80 -7
103 2 8 3 17 1 20 -3 3 -5 15 -7 27 -3 16 4 19 2 13 -9 -5 -8 2 -5 15 6 14 12
20 14 15 5 -8 -13 -7 -13 8 -1 9 7 17 9 17 4 0 -6 16 -8 36 -6 27 3 34 1 28
-9 -6 -10 -4 -10 9 0 9 8 20 11 26 8 5 -3 12 0 14 6 3 7 6 9 6 3 1 -6 102 -10
286 -9 200 0 282 -3 278 -10 -5 -8 -2 -8 8 0 17 13 217 13 238 0 9 -6 12 -5 8
1 -8 13 91 11 112 -1 9 -6 12 -5 8 1 -9 14 94 14 112 -1 11 -8 13 -8 8 1 -6 9
11 12 68 10 44 -1 75 -6 75 -12 0 -6 3 -7 8 0 10 14 144 16 135 2 -4 -6 -1 -7
8 -1 13 8 18 10 38 13 5 0 8 51 7 111 0 61 3 110 7 110 5 0 5 4 2 10 -3 5 -5
191 -4 412 2 586 2 607 14 600 6 -3 6 0 -1 9 -12 16 -12 128 0 147 4 7 4 12
-1 12 -4 0 -7 55 -6 122 1 68 2 123 3 123 0 0 1 179 2 397 2 240 6 394 12 391
5 -4 6 0 0 8 -11 18 -14 120 -3 113 5 -3 6 1 3 9 -4 10 2 15 20 15 16 0 23 -5
19 -12 -4 -7 -1 -6 8 1 18 15 101 13 111 -2 5 -7 8 -6 8 1 0 14 358 14 379 0
9 -6 12 -5 7 2 -4 7 4 10 23 10 19 -1 28 -5 24 -12 -4 -7 -1 -6 8 1 18 14 109
13 109 -2 0 -6 3 -6 8 1 4 8 36 11 85 10 114 -2 118 2 50 56 -32 25 -69 56
-83 68 -14 12 -40 34 -59 48 -19 15 -39 32 -45 37 -6 6 -60 51 -120 100 -60
50 -116 97 -125 105 -9 8 -39 33 -66 55 -28 22 -55 44 -61 50 -6 5 -28 24 -49
40 -20 17 -42 35 -49 40 -6 6 -38 32 -71 60 -33 27 -65 54 -71 60 -7 5 -31 26
-55 45 -24 19 -51 43 -61 53 -10 9 -20 17 -23 17 -3 0 -14 8 -24 18 -21 19
-24 21 -114 94 -34 28 -66 56 -72 62 -5 6 -28 24 -50 40 -22 17 -42 33 -45 37
-4 5 -89 76 -139 116 -3 2 -5 312 -5 690 -1 645 -2 686 -18 689 -10 1 -18 -2
-18 -8 0 -7 -5 -7 -12 -1 -8 5 -227 10 -514 12 -409 2 -501 0 -502 -11 -1 -7
-2 -91 -3 -186 -1 -95 -6 -175 -11 -178 -5 -3 -5 -11 -1 -17 13 -20 10 -67 -4
-67 -12 0 -44 23 -85 63 -10 9 -18 14 -18 10 0 -3 -8 3 -17 13 -10 11 -36 32
-58 49 -22 16 -42 32 -45 35 -7 7 -59 50 -100 80 -18 14 -38 30 -44 35 -6 6
-42 35 -81 64 -38 30 -71 58 -73 63 -2 4 -8 8 -13 8 -5 0 -23 14 -41 30 -17
17 -37 30 -44 30 -8 0 -14 5 -14 10 0 16 -13 12 -42 -13z m1132 -310 c0 -9 2
-9 8 0 9 15 122 16 122 2 0 -5 5 -9 11 -9 5 0 7 5 4 10 -3 6 3 10 15 10 13 0
18 -4 15 -11 -4 -6 2 -5 14 3 16 10 23 10 33 0 6 -6 17 -12 23 -12 5 0 3 5 -5
10 -12 8 -9 10 13 10 16 0 26 -4 22 -10 -3 -5 -1 -10 4 -10 6 0 11 5 11 10 0
6 14 10 31 10 17 0 28 -4 24 -10 -3 -5 -2 -10 2 -10 5 0 8 -15 7 -32 -3 -35
-5 -143 -3 -168 1 -8 1 -44 0 -80 0 -36 0 -72 0 -80 1 -8 1 -44 0 -80 0 -36 0
-72 0 -80 1 -8 1 -44 0 -80 0 -36 0 -72 0 -80 1 -8 1 -44 0 -80 0 -36 0 -72 0
-80 1 -8 1 -44 0 -80 0 -36 0 -72 0 -80 1 -8 1 -46 0 -85 0 -38 -1 -80 -1 -92
0 -32 23 -70 39 -65 10 3 12 0 8 -12 -4 -11 -3 -15 4 -11 13 9 41 -14 32 -28
-3 -5 -1 -7 4 -4 12 8 79 -51 75 -65 -1 -5 2 -7 8 -3 6 3 22 -3 36 -14 15 -12
23 -21 18 -21 -5 0 2 -6 16 -13 14 -8 24 -19 22 -26 -1 -7 2 -10 7 -6 6 3 19
-3 31 -15 11 -11 25 -20 30 -20 6 0 10 -6 10 -14 0 -8 5 -18 12 -22 7 -5 9 -2
4 7 -5 8 6 -1 22 -19 17 -18 34 -34 39 -35 4 -1 7 -5 5 -9 -1 -5 5 -8 13 -8
17 0 81 -58 78 -70 -1 -4 5 -7 15 -6 10 0 16 -5 14 -13 -2 -9 3 -11 14 -7 12
4 15 2 10 -9 -3 -8 0 -14 7 -12 7 1 11 -3 10 -9 -1 -7 6 -10 17 -7 12 3 20 0
20 -6 0 -7 -5 -9 -12 -5 -7 4 -8 3 -4 -5 4 -6 11 -9 16 -6 11 7 62 -40 53 -49
-4 -4 0 -4 10 0 12 4 17 1 17 -11 0 -9 4 -14 9 -11 5 4 11 3 13 -2 1 -4 18
-18 36 -31 18 -12 30 -27 27 -32 -4 -5 2 -9 12 -9 10 0 29 -13 43 -30 14 -16
30 -30 36 -30 6 0 20 -11 30 -25 10 -14 26 -25 34 -26 11 0 11 -2 -3 -7 -9 -4
-107 -7 -217 -7 -178 1 -200 -1 -200 -15 0 -9 -6 -22 -12 -29 -9 -10 -9 -12
-1 -7 8 4 12 -6 11 -34 0 -23 -5 -40 -12 -40 -7 0 -8 -3 -1 -8 14 -10 16 -204
2 -195 -6 4 -7 1 -1 -8 12 -20 12 -132 -1 -141 -6 -5 -6 -8 3 -8 6 0 12 -7 12
-16 0 -14 -2 -15 -17 -3 -17 13 -17 13 -1 -6 19 -22 20 -33 7 -56 -5 -10 -4
-20 4 -28 9 -9 8 -14 -3 -21 -10 -7 -11 -13 -4 -17 12 -9 12 -82 0 -102 -6 -9
-5 -12 2 -7 12 7 11 -32 -1 -51 -4 -6 -4 -14 1 -17 9 -5 7 -100 -3 -116 -3 -5
-1 -10 4 -10 6 0 11 -5 11 -11 0 -5 -4 -7 -10 -4 -6 4 -7 -2 -2 -16 5 -12 5
-41 2 -65 -4 -24 -3 -44 2 -44 5 0 4 -9 -2 -19 -7 -14 -7 -22 0 -26 8 -5 7
-11 -1 -21 -6 -8 -7 -14 -2 -14 10 0 9 -47 -1 -57 -2 -3 -1 -16 4 -29 5 -13 6
-24 2 -24 -4 0 -7 -16 -7 -35 0 -19 4 -35 9 -35 5 0 4 -6 -2 -13 -7 -8 -7 -18
-2 -27 5 -8 6 -18 3 -23 -3 -5 -6 -139 -6 -298 0 -194 -3 -286 -10 -282 -6 4
-7 1 -1 -8 12 -19 14 -90 2 -82 -6 3 -7 -2 -1 -13 11 -22 10 -284 -1 -302 -4
-6 -4 -12 1 -12 9 0 8 -179 -2 -188 -9 -10 -136 -9 -141 0 -3 4 -13 4 -22 0
-9 -5 -37 -8 -62 -8 l-45 1 0 59 0 59 52 27 c55 28 82 55 109 103 22 41 25 60
28 164 l2 93 -51 0 -51 0 -1 81 c0 58 -4 83 -14 90 -19 12 -25 11 -42 -6 -11
-10 -14 -35 -13 -90 l2 -76 -73 3 -74 2 1 51 c3 93 0 113 -16 119 -32 12 -52
-11 -52 -61 0 -119 2 -112 -38 -109 -23 2 -44 -4 -58 -15 -11 -10 -16 -18 -10
-19 11 0 12 -99 1 -118 -4 -6 -3 -13 3 -17 5 -3 10 -17 10 -30 0 -64 102 -175
165 -179 6 -1 10 -30 10 -66 l0 -64 -53 -1 c-30 0 -56 3 -58 7 -3 5 -11 5 -17
1 -16 -10 -167 -10 -167 0 0 4 -5 5 -12 1 -16 -10 -228 -11 -228 -1 0 4 -8 4
-17 0 -22 -11 -164 -10 -181 0 -6 5 -12 4 -12 0 0 -11 -81 -10 -98 1 -7 4 -12
4 -12 -1 0 -4 -22 -8 -50 -8 -27 0 -50 4 -50 8 0 5 -5 5 -12 1 -17 -11 -108
-11 -108 -1 0 5 -6 5 -12 0 -17 -10 -68 -11 -89 -2 -8 4 -21 4 -28 0 -7 -5
-28 -5 -47 -1 -19 4 -34 5 -34 1 0 -3 -49 -6 -109 -6 -111 0 -133 8 -52 19 73
10 203 80 271 146 34 33 67 60 74 60 7 0 21 7 32 15 10 8 27 15 37 15 9 0 17
5 17 10 0 6 6 10 14 10 7 0 49 23 92 51 44 29 111 65 149 82 39 16 77 35 86
43 8 8 21 14 28 14 7 0 9 5 6 10 -3 6 0 10 7 10 21 0 131 123 161 180 42 77
68 165 72 242 2 37 8 75 13 85 5 10 7 24 5 31 -3 6 0 12 5 12 5 0 12 17 15 38
10 63 12 67 33 90 17 19 77 124 80 142 0 3 3 12 7 20 25 61 33 233 14 298 -4
12 -9 30 -11 40 -4 19 -38 94 -46 102 -3 3 -11 16 -18 30 -15 29 -53 70 -126
134 -37 34 -49 51 -50 75 0 17 -5 31 -10 31 -5 0 -3 6 3 14 7 8 8 17 4 19 -5
3 -10 20 -11 39 -3 48 -40 152 -67 193 -14 19 -22 35 -18 35 3 0 -4 8 -15 19
-12 10 -22 25 -22 33 0 19 244 131 425 195 39 13 79 28 90 33 11 5 54 20 95
34 41 13 88 29 104 36 l30 11 -28 15 c-72 37 -131 69 -136 74 -5 5 -159 82
-170 85 -3 1 -18 8 -35 15 -16 7 -50 21 -75 30 -38 15 -45 23 -48 49 -2 19 5
41 19 60 13 18 23 47 24 73 1 24 3 44 5 46 1 1 3 5 5 10 1 4 5 19 9 35 6 19 3
35 -8 52 -13 19 -14 30 -6 45 30 56 -23 132 -89 128 -22 -2 -37 4 -46 15 -15
21 -66 37 -114 37 -19 0 -42 7 -51 15 -9 8 -36 16 -61 18 -24 2 -55 10 -68 17
-16 8 -44 10 -83 6 -33 -3 -58 -2 -58 4 0 11 -83 5 -106 -8 -10 -5 -34 -7 -54
-5 -23 3 -50 -1 -71 -11 -19 -8 -43 -14 -54 -12 -26 5 -84 -19 -107 -44 -11
-11 -28 -21 -38 -21 -11 -1 -24 -2 -28 -3 -19 -3 -93 -70 -113 -104 -13 -20
-26 -39 -31 -43 -4 -3 -23 -40 -42 -83 -29 -68 -35 -75 -41 -55 -14 48 -59
139 -68 139 -6 0 -8 3 -4 6 7 7 -16 37 -75 96 -35 35 -56 48 -76 48 -16 0 -37
9 -49 19 -33 31 -84 53 -108 47 -12 -3 -37 1 -54 10 -17 9 -48 14 -69 13 -20
-2 -54 3 -76 10 -30 10 -47 11 -75 2 -31 -9 -59 -8 -100 1 -13 4 -71 -14 -71
-21 0 -4 -12 -7 -27 -6 -36 2 -94 -16 -87 -27 3 -4 -17 -8 -45 -8 -54 0 -99
-15 -118 -41 -7 -10 -24 -15 -45 -13 -63 5 -111 -60 -89 -119 8 -19 7 -33 -3
-52 -16 -30 -11 -82 9 -102 10 -9 11 -21 6 -36 -9 -23 2 -59 27 -89 8 -10 15
-33 16 -53 1 -22 11 -48 28 -69 16 -19 28 -43 28 -52 0 -26 38 -78 71 -97 16
-9 29 -24 29 -34 1 -27 21 -49 68 -73 23 -12 42 -27 42 -32 0 -18 48 -56 80
-63 39 -9 38 -16 -7 -40 -81 -43 -223 -214 -223 -269 0 -9 -4 -16 -9 -16 -5 0
-12 -19 -16 -42 -4 -24 -9 -50 -12 -58 -2 -8 -6 -44 -9 -80 -6 -62 -36 -130
-58 -130 -14 0 -85 -78 -120 -133 -60 -94 -79 -167 -79 -295 0 -71 4 -117 12
-125 6 -6 11 -24 11 -39 0 -15 5 -28 12 -28 6 0 8 -3 5 -7 -7 -7 37 -88 61
-113 16 -15 42 -71 48 -104 6 -32 36 -119 50 -148 8 -15 16 -44 20 -65 8 -56
23 -101 55 -165 54 -110 160 -215 264 -263 22 -10 50 -24 61 -32 l22 -14 -19
-62 c-10 -34 -20 -77 -21 -94 -1 -18 -5 -33 -9 -33 -4 0 -9 -21 -12 -47 -5
-49 -18 -126 -21 -130 -3 -4 -69 -4 -144 -1 -39 2 -72 -1 -72 -5 0 -5 -5 -5
-11 -2 -5 4 -203 7 -438 7 -235 0 -432 3 -437 6 -12 9 -12 102 -1 102 5 0 4 6
-2 14 -9 10 -9 16 -1 21 7 5 8 11 1 19 -6 7 -6 17 -1 26 5 8 6 18 3 23 -9 15
-10 57 -1 63 5 3 5 10 -1 17 -12 15 -12 27 0 50 7 11 6 17 -1 17 -7 0 -8 6 -1
17 6 11 6 24 0 35 -5 10 -6 18 -2 18 10 0 9 77 0 86 -4 4 -4 11 0 16 3 6 5
112 5 237 0 153 4 231 12 240 6 9 7 12 0 9 -7 -5 -9 27 -8 100 1 59 3 112 4
117 1 6 1 12 0 15 -7 20 -7 40 1 40 6 0 7 5 3 12 -9 14 -10 69 -1 91 3 9 2 19
-4 22 -5 4 -7 11 -3 16 3 6 6 138 6 295 0 207 3 284 12 284 8 0 8 2 0 8 -13 8
-13 150 0 171 6 9 5 12 -2 7 -11 -7 -11 39 1 50 4 4 3 12 0 18 -11 16 -10 125
0 119 5 -3 4 5 -3 17 -10 18 -9 24 1 31 9 6 10 12 4 17 -15 11 -17 33 -4 48 6
8 7 14 2 14 -5 0 -9 9 -10 20 -1 11 3 20 9 20 6 0 8 3 4 8 -4 4 -127 7 -272 8
-145 0 -267 4 -270 7 -4 3 5 9 20 13 14 3 26 12 26 19 0 13 28 30 43 27 4 -1
7 3 7 9 0 5 5 7 12 3 7 -5 8 -3 4 5 -5 7 0 18 10 26 23 17 38 19 28 3 -4 -7
-3 -8 4 -4 6 4 8 14 5 24 -3 9 -3 14 1 10 5 -4 18 4 31 18 12 13 27 24 32 24
6 0 18 11 27 25 9 14 23 25 30 25 8 0 16 7 20 15 3 8 11 15 18 15 7 0 19 9 26
21 8 12 19 18 28 15 8 -3 13 -2 10 3 -6 10 40 52 48 44 3 -4 6 1 6 10 0 8 9
19 20 22 12 4 37 22 56 41 20 21 39 32 47 28 6 -4 9 -4 5 1 -8 8 15 35 30 35
6 0 13 7 16 16 3 8 11 12 16 9 6 -4 9 -1 8 6 -2 7 2 13 7 14 6 0 19 9 31 20
39 37 126 110 137 114 5 2 23 16 40 32 16 16 34 26 40 22 6 -4 7 -1 3 6 -5 8
-1 14 12 18 11 3 23 12 26 20 3 8 11 11 16 8 6 -4 9 -1 8 6 -2 6 3 14 11 17 9
3 11 0 6 -8 -5 -9 -4 -11 4 -6 6 4 9 11 6 16 -3 4 2 13 10 20 8 7 15 9 15 6 0
-4 6 -1 14 6 8 7 12 15 10 17 -2 2 4 10 14 17 13 9 19 9 24 1 5 -7 8 -3 8 11
0 12 4 21 9 20 5 -2 18 8 29 20 12 13 26 21 32 17 6 -3 9 -1 8 7 -2 7 3 12 10
10 6 -1 12 5 12 13 0 9 8 19 18 22 9 4 22 12 28 17 6 6 28 25 49 41 21 17 45
38 54 48 8 9 19 17 24 17 5 0 18 11 29 25 11 14 24 25 29 25 6 0 21 12 34 26
14 15 25 24 25 21 0 -3 12 5 26 18 15 14 31 22 37 18 5 -3 7 -1 4 4 -7 12 42
49 58 44 6 -1 7 1 3 5 -9 9 42 54 61 54 8 0 12 3 8 6 -6 6 51 59 63 59 4 0 18
12 32 28 26 28 45 37 32 15 -4 -8 -3 -10 2 -5 5 5 9 14 9 20 0 7 8 12 17 12 9
0 20 4 25 9 4 5 3 6 -4 2 -7 -4 -13 -4 -13 -1 0 10 23 30 43 38 9 3 17 11 17
16 0 5 7 12 16 15 12 5 15 2 10 -9 -3 -9 -2 -13 4 -10 6 3 10 14 10 24 0 17
50 61 70 61 5 0 10 7 10 15 0 8 5 15 11 15 7 0 20 10 30 22 11 11 19 17 19 12
0 -5 7 2 16 14 9 13 22 21 30 18 8 -3 13 0 11 7 -1 7 4 11 11 9 8 -1 11 2 7 8
-3 5 5 14 19 20 14 5 26 14 26 20 0 6 5 8 10 5 6 -3 10 2 10 11 0 10 3 15 6
12 3 -3 23 12 45 34 23 23 45 38 54 35 10 -4 12 -1 8 10 -4 10 -2 14 4 10 6
-4 14 0 17 9 3 8 11 12 16 9 6 -4 9 -1 8 7 -2 7 5 12 15 11 10 0 16 2 13 5 -3
3 9 18 26 34 32 28 66 34 60 9 -1 -7 2 -9 8 -6 14 8 52 -24 44 -37 -3 -4 -2
-8 3 -7 19 3 46 -1 40 -7 -8 -8 10 -25 46 -43 15 -8 27 -18 27 -23 0 -5 -6 -6
-12 -2 -8 4 -9 3 -5 -2 5 -5 16 -9 25 -9 9 0 16 -6 14 -12 -1 -7 6 -13 16 -13
10 0 24 -9 32 -19 7 -11 17 -18 22 -15 4 3 8 -3 8 -12 0 -10 3 -15 6 -11 6 5
13 1 47 -29 7 -5 20 -13 30 -17 9 -3 17 -13 17 -22 0 -8 6 -14 13 -13 6 2 11
-3 9 -10 -1 -8 2 -11 8 -7 5 3 13 -1 16 -9 3 -9 10 -14 15 -11 4 3 28 -13 51
-36 24 -23 44 -40 45 -38 1 2 10 -3 20 -11 10 -8 35 -28 56 -43 21 -16 35 -32
32 -38 -4 -5 2 -6 11 -2 10 4 15 2 11 -3 -3 -5 8 -16 24 -23 16 -7 27 -17 23
-22 -3 -5 1 -9 8 -9 8 0 20 -9 28 -19 7 -11 17 -18 21 -16 4 3 13 -3 20 -12
12 -14 12 -16 0 -8 -10 5 -12 4 -7 -4 4 -6 12 -9 17 -5 6 3 18 -4 28 -15 10
-12 23 -21 29 -21 6 0 15 -7 20 -16 5 -9 15 -15 22 -12 9 3 12 38 12 126 1 75
4 119 10 116 6 -4 7 0 1 12 -11 22 -11 204 0 221 4 6 1 14 -5 16 -9 4 -9 8 -3
14 6 4 10 56 9 118 0 61 1 113 3 117 2 3 39 7 83 7 57 1 80 -3 80 -12z m-1630
-4359 c3 -4 25 -14 48 -22 22 -8 57 -31 76 -50 19 -20 39 -36 45 -36 6 0 11
-3 11 -7 0 -10 85 -64 106 -67 8 -1 20 -9 25 -17 7 -12 9 -12 9 1 0 13 1 13
10 0 5 -8 15 -16 22 -16 7 -1 16 -3 21 -4 16 -6 28 -8 49 -9 12 0 18 -4 15 -8
-9 -8 -332 -7 -346 1 -6 4 -11 4 -11 -1 0 -9 -269 -7 -278 2 -6 6 20 61 92
191 l40 71 30 -11 c17 -6 33 -14 36 -18z m480 -234 c0 -8 -19 -13 -24 -6 -3 5
1 9 9 9 8 0 15 -2 15 -3z"/>
<path d="M4090 5360 c0 -5 5 -10 11 -10 5 0 7 5 4 10 -3 6 -8 10 -11 10 -2 0
-4 -4 -4 -10z"/>
<path d="M4130 5319 c0 -5 5 -7 10 -4 6 3 10 8 10 11 0 2 -4 4 -10 4 -5 0 -10
-5 -10 -11z"/>
<path d="M1350 4019 c0 -5 5 -7 10 -4 6 3 10 8 10 11 0 2 -4 4 -10 4 -5 0 -10
-5 -10 -11z"/>
</g>
</svg>
